<?xml version="1.0" encoding="UTF-8"?>
<svg version="1.1" xmlns="http://www.w3.org/2000/svg" width="512" height="512">
<path d="M0 0 C0.66525948 -0.00581376 1.33051895 -0.01162753 2.01593781 -0.01761746 C4.25529344 -0.03226843 6.49356169 -0.01830973 8.73291016 -0.00457001 C10.35043907 -0.00917694 11.9679638 -0.01552846 13.58547974 -0.02347898 C18.03825017 -0.04022408 22.49067903 -0.03190255 26.94345093 -0.01953411 C31.74243521 -0.01050705 36.54135955 -0.02444167 41.34033203 -0.0354538 C50.74463538 -0.05326873 60.14881125 -0.04938581 69.55311966 -0.03780323 C77.19411518 -0.02878086 84.8350749 -0.02753972 92.47607422 -0.0318985 C93.56231897 -0.03251143 94.64856373 -0.03312436 95.76772499 -0.03375587 C97.97419994 -0.03503473 100.18067488 -0.03633158 102.38714981 -0.03764623 C123.0921028 -0.04906074 143.79698503 -0.03592467 164.50192642 -0.01444477 C182.27947728 0.00342699 200.05692368 0.00032313 217.83447266 -0.01811981 C238.46379314 -0.03951115 259.09305156 -0.04796203 279.72238159 -0.03567076 C281.92087808 -0.03439652 284.11937458 -0.03313904 286.31787109 -0.0318985 C287.94055373 -0.03097285 287.94055373 -0.03097285 289.59601784 -0.03002849 C297.23053091 -0.02657038 304.86500472 -0.03241386 312.49951172 -0.04181671 C321.79958405 -0.05301879 331.0995213 -0.05003443 340.39957809 -0.02869374 C345.14740182 -0.01815915 349.89500006 -0.01410235 354.64282227 -0.02729034 C358.9853561 -0.03917042 363.3274545 -0.03272466 367.66994858 -0.01138014 C369.24458254 -0.00689537 370.81925296 -0.00922212 372.39386368 -0.01888329 C374.52775375 -0.03097616 376.6601352 -0.01864756 378.79394531 0 C379.9810611 0.00064941 381.16817688 0.00129882 382.39126587 0.00196791 C386.03666938 0.6100755 387.2227176 1.55673095 389.39697266 4.50336456 C389.78982766 7.3165201 389.93775714 9.73824719 389.90490723 12.55023956 C389.91426717 13.77619843 389.91426717 13.77619843 389.9238162 15.02692413 C389.93978867 17.7693632 389.92712556 20.51091868 389.91455078 23.25336456 C389.91997001 25.21788808 389.92709155 27.18240753 389.93579102 29.14691925 C389.95405089 34.48572472 389.94694579 39.82422155 389.93427467 45.16303253 C389.92416083 50.74523512 389.93353585 56.32741096 389.93981934 61.90961456 C389.94710045 71.28466292 389.93749583 80.65958532 389.91845703 90.03461456 C389.89668746 100.87968795 389.9037385 111.72446057 389.92576265 122.56952667 C389.9439034 131.87407764 389.94648145 141.17853796 389.93600798 150.48310089 C389.92976577 156.04329103 389.92895742 161.60333971 389.94215393 167.16352081 C389.95369249 172.39043028 389.94572309 177.61695125 389.9225769 182.84381866 C389.91727915 184.76430363 389.91882173 186.68482119 389.92762756 188.60529327 C389.93852466 191.22280294 389.92489076 193.83906016 389.90490723 196.45648956 C389.91829156 197.60220428 389.91829156 197.60220428 389.93194628 198.77106476 C389.88245753 202.10246868 389.60866372 204.18202365 387.75894737 206.98983955 C384.65038981 208.98176588 382.77618491 208.91572801 379.09744263 208.76663971 C377.8005954 208.72563644 376.50374817 208.68463318 375.16760254 208.64238739 C373.73119857 208.57706064 372.29479729 208.51167472 370.85839844 208.44623566 C369.34320827 208.39274158 367.82793397 208.34158701 366.31259155 208.29259491 C363.04281117 208.18581543 359.77349963 208.07014057 356.50418472 207.95000076 C351.29384809 207.76646442 346.0834024 207.65111557 340.87081909 207.55381012 C339.54597651 207.52890536 339.54597651 207.52890536 338.19436944 207.50349748 C334.54613233 207.43602216 330.89786059 207.3705408 327.24958444 207.30521464 C316.96161927 207.11746128 306.68390078 206.86775108 296.40332031 206.42914581 C285.59154524 205.97782655 274.78897969 205.7078343 263.96728516 205.71430206 C263.09597489 205.71458121 262.22466463 205.71486036 261.32695103 205.71514797 C239.38992147 205.81575614 222.68825213 207.40437101 206.30001831 223.2339859 C199.64643182 230.26848636 193.72346394 237.78883899 188.52747917 245.95814705 C187.39697266 247.50336456 187.39697266 247.50336456 185.39697266 248.50336456 C178.20544938 249.08332612 178.20544938 249.08332612 175.29199219 246.9933548 C172.65418157 243.52736272 172.89395005 240.41246072 173.00634766 236.23773956 C173.01200745 235.44434174 173.01766724 234.65094391 173.02349854 233.83350372 C173.04584119 231.30616983 173.0960309 228.78026791 173.14697266 226.25336456 C173.16704051 224.53723925 173.18529079 222.82109164 173.20166016 221.10492706 C173.2456987 216.90385676 173.3147094 212.70385322 173.39697266 208.50336456 C172.47298801 208.50705173 171.54900337 208.51073891 170.5970192 208.51453781 C148.1303727 208.60327549 125.6637489 208.66903876 103.19696426 208.71061325 C92.33225533 208.73125197 81.46766205 208.75939761 70.60302734 208.80512238 C61.13510365 208.84495002 51.6672637 208.87078784 42.19925857 208.87971854 C37.18445327 208.88494019 32.1698876 208.89724015 27.155159 208.92628479 C22.43723761 208.95338955 17.71965506 208.96181958 13.00166321 208.95579529 C11.26821299 208.95689774 9.53475171 208.96488104 7.80136871 208.98018646 C5.43765577 209.0000377 3.07522842 208.99532241 0.71148682 208.98438263 C0.02276749 208.996034 -0.66595184 209.00768536 -1.37554145 209.0196898 C-4.47231084 208.9808485 -6.39134397 208.63664871 -9.02843857 206.97623062 C-11.22219576 203.53097063 -11.15718526 200.41326353 -11.11096191 196.45648956 C-11.12032186 195.2305307 -11.12032186 195.2305307 -11.12987089 193.97980499 C-11.14584336 191.23736592 -11.13318025 188.49581044 -11.12060547 185.75336456 C-11.1260247 183.78884105 -11.13314624 181.8243216 -11.1418457 179.85980988 C-11.16010557 174.5210044 -11.15300047 169.18250757 -11.14032936 163.84369659 C-11.13021552 158.261494 -11.13959054 152.67931817 -11.14587402 147.09711456 C-11.15315513 137.7220662 -11.14355052 128.34714381 -11.12451172 118.97211456 C-11.10274215 108.12704117 -11.10979319 97.28226855 -11.13181734 86.43720245 C-11.14995809 77.13265149 -11.15253614 67.82819117 -11.14206266 58.52362823 C-11.13582046 52.96343809 -11.13501211 47.40338941 -11.14820862 41.84320831 C-11.15974717 36.61629885 -11.15177777 31.38977787 -11.12863159 26.16291046 C-11.12333384 24.24242549 -11.12487642 22.32190794 -11.13368225 20.40143585 C-11.14457935 17.78392618 -11.13094545 15.16766896 -11.11096191 12.55023956 C-11.1198848 11.78642975 -11.12880769 11.02261993 -11.13800097 10.23566437 C-11.08992996 6.99969808 -10.93187695 4.94903413 -8.98425627 2.30954409 C-5.83411318 -0.07986244 -3.93449479 0.00215236 0 0 Z M5.39697266 16.50336456 C5.39697266 74.58336456 5.39697266 132.66336456 5.39697266 192.50336456 C18.35591797 192.54074738 31.31486328 192.57813019 44.66650391 192.61664581 C52.8559679 192.64690687 61.04541751 192.67791952 69.23486328 192.71234894 C82.24534833 192.76690576 95.25579336 192.8183152 108.26635742 192.84980011 C117.74055905 192.87274131 127.21465632 192.90609567 136.68877524 192.95206612 C141.7073715 192.9760508 146.72586406 192.99474513 151.74451637 193.00097847 C156.4649287 193.00700569 161.18507554 193.02691935 165.90538979 193.05764008 C167.64083517 193.06645838 169.37631519 193.07013509 171.11178207 193.06837273 C173.47573592 193.0667296 175.8388711 193.08333564 178.20271301 193.10463715 C179.24016127 193.09736578 179.24016127 193.09736578 180.29856807 193.08994752 C183.1326266 193.13228726 184.97565281 193.20277727 187.31959057 194.87504101 C188.86088973 197.20451516 188.83198649 199.05086532 188.90869141 201.82758331 C188.94414062 202.85561066 188.97958984 203.883638 189.01611328 204.94281769 C189.03867187 206.01467316 189.06123047 207.08652863 189.08447266 208.19086456 C189.11863281 209.27432159 189.15279297 210.35777863 189.18798828 211.47406769 C189.27051825 214.15039676 189.33965203 216.82639615 189.39697266 219.50336456 C195.3633411 214.57041312 200.7799435 209.20386073 206.20947266 203.69086456 C207.90117418 201.97374303 209.59507214 200.25878175 211.29150391 198.54633331 C212.03247314 197.79376251 212.77344238 197.04119171 213.53686523 196.26581573 C216.82300753 193.15219698 219.1233371 193.37007038 223.55984497 193.34514618 C224.87245867 193.33537215 226.18507236 193.32559813 227.53746223 193.31552792 C229.00641979 193.30961311 230.47537771 193.30378797 231.94433594 193.2980423 C233.50650229 193.28833067 235.068666 193.27818541 236.63082695 193.26764011 C240.82415507 193.24053642 245.01749371 193.21938846 249.21086121 193.19944763 C253.1419804 193.17985917 257.07305857 193.15493501 261.00415039 193.13043976 C272.51006035 193.06186938 284.01602024 193.00189532 295.52197266 192.94086456 C321.22072266 192.79648956 346.91947266 192.65211456 373.39697266 192.50336456 C373.39697266 134.42336456 373.39697266 76.34336456 373.39697266 16.50336456 C251.95697266 16.50336456 130.51697266 16.50336456 5.39697266 16.50336456 Z " fill="#000000" transform="translate(122.60302734375,263.4966354370117)"/>
<path d="M0 0 C1.31525414 -0.01043099 2.63050827 -0.02086198 3.98561859 -0.03160906 C5.44887 -0.02296045 6.91211921 -0.01393381 8.37536621 -0.00457001 C9.92689856 -0.00917715 11.47842655 -0.01552881 13.02994537 -0.02347898 C17.3002955 -0.04022125 21.57028939 -0.03190387 25.84064102 -0.01953411 C30.44330545 -0.01050588 35.04590744 -0.02444225 39.64855957 -0.0354538 C48.66784918 -0.05326748 57.68700586 -0.04938637 66.70630074 -0.03780323 C74.03455829 -0.02878037 81.36277852 -0.02753993 88.69104004 -0.0318985 C89.73287901 -0.03251143 90.77471799 -0.03312436 91.84812784 -0.03375587 C93.96441079 -0.03503473 96.08069373 -0.03633158 98.19697666 -0.03764623 C118.05496885 -0.04906038 137.91288726 -0.03592525 157.77086735 -0.01444477 C174.82071122 0.00342696 191.87044618 0.00032309 208.92028809 -0.01811981 C228.70580592 -0.0395118 248.49125903 -0.04796166 268.2767868 -0.03567076 C270.38541157 -0.03439652 272.49403635 -0.03313904 274.60266113 -0.0318985 C276.15900512 -0.03097285 276.15900512 -0.03097285 277.74679041 -0.03002849 C285.06871751 -0.02657057 292.39060366 -0.03241344 299.71252441 -0.04181671 C308.63198175 -0.05301951 317.55129823 -0.05003292 326.47073936 -0.02869374 C331.02414073 -0.01816011 335.57730701 -0.01410069 340.13070679 -0.02729034 C344.29560675 -0.03917244 348.46005278 -0.03272138 352.62491131 -0.01138014 C354.13494255 -0.00689623 355.64501182 -0.00922025 357.15501881 -0.01888329 C359.2012202 -0.03097744 361.24752838 -0.01622774 363.29370117 0 C365.00146854 0.00097411 365.00146854 0.00097411 366.74373627 0.00196791 C370.3119161 0.61822798 371.49477967 1.63522904 373.64685059 4.50336456 C374.04002611 7.12363689 374.18808411 9.32471459 374.15478516 11.94281769 C374.1641451 13.07077129 374.1641451 13.07077129 374.17369413 14.22151184 C374.1896573 16.74286443 374.17700748 19.2632547 374.16442871 21.78461456 C374.16984837 23.59150507 374.17697015 25.39839116 374.18566895 27.20526886 C374.2039238 32.11434486 374.19682585 37.02308508 374.1841526 41.93216705 C374.17403614 47.06593491 374.18341451 52.19967372 374.18969727 57.33344269 C374.19697762 65.95524007 374.18737578 74.57690047 374.16833496 83.19867706 C374.1465655 93.17125425 374.1536166 103.14350435 374.17564058 113.11607361 C374.19378352 121.67328698 374.19635832 130.23040179 374.18588591 138.78762817 C374.17964489 143.90069186 374.17883205 149.01360173 374.19203186 154.12665558 C374.20357363 158.93334032 374.19559528 163.73960272 374.17245483 168.54624176 C374.16715878 170.31192066 374.1686968 172.077635 374.17750549 173.84329987 C374.1884096 176.25065269 374.17476104 178.65664567 374.15478516 181.06391144 C374.16370804 181.76546608 374.17263093 182.46702072 374.18182421 183.18983459 C374.13143002 186.31292556 373.78351296 188.28381733 372.1227169 190.95187569 C368.62877699 193.14133514 365.5060172 192.94037922 361.52505493 192.76663971 C360.69906984 192.74732946 359.87308475 192.72801921 359.02206981 192.7081238 C356.24789341 192.63932605 353.47538295 192.5422709 350.70202637 192.44623566 C348.7139166 192.39275894 346.72574326 192.34160255 344.73751831 192.29259491 C340.4463297 192.18576391 336.15549495 192.07009271 331.86465836 191.95000076 C325.04109379 191.76686997 318.21744974 191.65125405 311.3921814 191.55381012 C310.23730575 191.53720695 309.0824301 191.52060378 307.89255822 191.50349748 C303.12300026 191.43602787 298.35341591 191.37054386 293.58382821 191.30521464 C280.10510191 191.11706652 266.63414876 190.86634206 253.16101074 190.42914581 C239.01324526 189.97986463 224.87245831 189.70780267 210.71716309 189.71430206 C209.0158352 189.71472079 209.0158352 189.71472079 207.28013706 189.71514797 C171.13383247 189.58682822 171.13383247 189.58682822 140.91513062 207.2339859 C134.4848962 214.14676998 129.01957189 221.60464818 124.61585808 229.95814705 C123.64685059 231.50336456 123.64685059 231.50336456 121.64685059 232.50336456 C114.45532731 233.08332612 114.45532731 233.08332612 111.54187012 230.9933548 C108.9040595 227.52736272 109.14382798 224.41246072 109.25622559 220.23773956 C109.26188538 219.44434174 109.26754517 218.65094391 109.27337646 217.83350372 C109.29571912 215.30616983 109.34590883 212.78026791 109.39685059 210.25336456 C109.41691844 208.53723925 109.43516872 206.82109164 109.45153809 205.10492706 C109.49557663 200.90385676 109.56458733 196.70385322 109.64685059 192.50336456 C108.75563192 192.50889532 108.75563192 192.50889532 107.84640884 192.51453781 C93.39117896 192.60286568 78.93597314 192.66906282 64.4805336 192.71061325 C57.48997559 192.73124074 50.49959768 192.75936457 43.50915527 192.80512238 C36.76590237 192.8492411 30.02287544 192.87248701 23.27947235 192.88287354 C20.70378418 192.89027758 18.12810653 192.90473548 15.55249786 192.92628479 C11.95123453 192.9552234 8.3507501 192.95932441 4.74938965 192.95746613 C3.1439328 192.97903778 3.1439328 192.97903778 1.50604248 193.00104523 C0.52450195 192.99554657 -0.45703857 192.99004791 -1.46832275 192.98438263 C-2.32005947 192.9880698 -3.17179619 192.99175697 -4.04934311 192.99555588 C-7.31697694 192.29744988 -8.4252145 191.22244047 -10.35314941 188.50336456 C-10.74632494 185.88309224 -10.89438294 183.68201453 -10.86108398 181.06391144 C-10.86732395 180.31194237 -10.87356391 179.5599733 -10.87999296 178.78521729 C-10.89595613 176.2638647 -10.8833063 173.74347443 -10.87072754 171.22211456 C-10.8761472 169.41522405 -10.88326898 167.60833796 -10.89196777 165.80146027 C-10.91022263 160.89238426 -10.90312467 155.98364404 -10.89045143 151.07456207 C-10.88033497 145.94079422 -10.88971334 140.8070554 -10.89599609 135.67328644 C-10.90327644 127.05148905 -10.89367461 118.42982866 -10.87463379 109.80805206 C-10.85286433 99.83547488 -10.85991542 89.86322478 -10.88193941 79.89065552 C-10.90008235 71.33344215 -10.90265714 62.77632734 -10.89218473 54.21910095 C-10.88594372 49.10603726 -10.88513087 43.9931274 -10.89833069 38.88007355 C-10.90987246 34.07338881 -10.90189411 29.2671264 -10.87875366 24.46048737 C-10.87345761 22.69480847 -10.87499563 20.92909413 -10.88380432 19.16342926 C-10.89470842 16.75607643 -10.88105987 14.35008346 -10.86108398 11.94281769 C-10.87000687 11.24126305 -10.87892976 10.5397084 -10.88812304 9.81689453 C-10.8377276 6.69372612 -10.61469008 4.85192838 -8.71876097 2.32516146 C-5.63812753 -0.04728571 -3.86666959 0.00220556 0 0 Z M5.64685059 16.50336456 C5.64685059 69.30336456 5.64685059 122.10336456 5.64685059 176.50336456 C43.68742287 176.71351378 43.68742287 176.71351378 81.72814941 176.89130402 C89.07788086 176.94123077 89.07788086 176.94123077 92.51628113 176.96837616 C94.92278541 176.98454855 97.32933365 176.99482149 99.73588562 177.00048065 C103.3767759 177.01017928 107.01708871 177.038471 110.65783691 177.07099152 C111.73377263 177.06956555 112.80970835 177.06813959 113.91824818 177.06667042 C114.89637816 177.07919944 115.87450815 177.09172846 116.88227844 177.10463715 C117.73493695 177.10924611 118.58759546 177.11385508 119.46609211 177.11860371 C122.13928138 177.5902463 123.02762718 178.35844181 124.64685059 180.50336456 C125.07922363 182.95526886 125.07922363 182.95526886 125.15856934 185.82758331 C125.21174316 187.36962433 125.21174316 187.36962433 125.26599121 188.94281769 C125.2885498 190.01467316 125.3111084 191.08652863 125.33435059 192.19086456 C125.36851074 193.27432159 125.4026709 194.35777863 125.43786621 195.47406769 C125.52039618 198.15039676 125.58952996 200.82639615 125.64685059 203.50336456 C131.61321903 198.57041312 137.02982143 193.20386073 142.45935059 187.69086456 C144.15105211 185.97374303 145.84495007 184.25878175 147.54138184 182.54633331 C148.28235107 181.79376251 149.02332031 181.04119171 149.78674316 180.26581573 C153.39830128 176.8438656 156.91083627 177.35100686 161.63198853 177.34514618 C162.46674206 177.3402082 163.30149559 177.33527022 164.16154468 177.33018261 C166.97451566 177.31475521 169.78746373 177.30643285 172.60046387 177.2980423 C174.6105876 177.28846789 176.6207093 177.27845807 178.63082886 177.26804352 C184.10159737 177.24094099 189.57237456 177.21996044 195.04317331 177.20004153 C200.75539142 177.17821489 206.46758263 177.15080999 212.17977905 177.12398529 C223.00281736 177.07401338 233.82587056 177.02909127 244.64893806 176.98596293 C259.26978871 176.92741097 273.89060402 176.8611 288.51142311 176.79521275 C311.55654181 176.69156771 334.60169068 176.59832533 357.64685059 176.50336456 C357.64685059 123.70336456 357.64685059 70.90336456 357.64685059 16.50336456 C241.48685059 16.50336456 125.32685059 16.50336456 5.64685059 16.50336456 Z " fill="#000000" transform="translate(10.3531494140625,-0.5033645629882813)"/>
<path d="M0 0 C6.91931041 -0.09947585 13.8381971 -0.17175527 20.75805664 -0.21972656 C23.10806538 -0.23974175 25.45802496 -0.26696244 27.80786133 -0.30175781 C31.20145867 -0.35072124 34.59439296 -0.37307059 37.98828125 -0.390625 C39.02519608 -0.41127014 40.0621109 -0.43191528 41.13044739 -0.45318604 C52.53367147 -0.45663051 61.72411606 3.11204812 70 11 C78.85825164 20.33280083 80.42011894 30.39285606 80.20458984 42.80200195 C80.15016149 44.86840986 80.07706192 46.93431233 80 49 C80.8971875 49.11214844 81.794375 49.22429687 82.71875 49.33984375 C90.08817774 50.82250243 95.65580945 55.84153402 99.78125 61.9609375 C105.04161095 70.76192601 105.58991229 81.07444984 103.30859375 91.01171875 C100.12298828 99.715486 94.38165513 106.02536592 86 110 C82.5 110.8125 82.5 110.8125 80 111 C80.04640625 111.66644531 80.0928125 112.33289063 80.140625 113.01953125 C80.55441207 123.58587966 77.74155091 131.89032095 70.90625 140 C63.73708977 147.52174188 54.86118573 152.01279823 44.36731434 152.49219131 C42.3366406 152.50875571 40.30571311 152.50389777 38.27510071 152.48101807 C37.14680869 152.48443577 36.01851667 152.48785347 34.85603398 152.49137473 C31.10338369 152.49792431 27.35146053 152.47602493 23.59887695 152.45410156 C20.89776509 152.45297245 18.19669676 152.45343236 15.49559021 152.45587158 C9.69474681 152.45796155 3.8940844 152.44548988 -1.90671349 152.42292023 C-10.29349825 152.39031042 -18.68019615 152.37998407 -27.06703744 152.37496826 C-40.6764957 152.36622964 -54.28585765 152.33965309 -67.89526367 152.30175781 C-81.10977703 152.26500053 -94.32426415 152.236707 -107.53881836 152.21972656 C-108.35436519 152.21867567 -109.16991202 152.21762477 -110.01017239 152.21654204 C-114.10183077 152.21132161 -118.19348934 152.20626684 -122.28514802 152.20129442 C-156.19016917 152.15987703 -190.09507114 152.08916892 -224 152 C-224 146.72 -224 141.44 -224 136 C-222.63648155 135.99668985 -221.2729631 135.99337971 -219.86812592 135.98996925 C-187.49472721 135.91093697 -155.12137373 135.82171149 -122.74803874 135.71994839 C-118.76269012 135.70742965 -114.77734124 135.69499685 -110.79199219 135.68261719 C-109.60188462 135.6789182 -109.60188462 135.6789182 -108.38773447 135.67514448 C-95.54416237 135.6354301 -82.70058149 135.60267691 -69.85698384 135.57250018 C-56.67645419 135.54137672 -43.49596179 135.50276347 -30.31547403 135.45720994 C-22.1836334 135.4293409 -14.05181999 135.40730099 -5.91994447 135.39273749 C0.31752888 135.38094062 6.55492563 135.3587188 12.79235458 135.33261681 C15.34972532 135.32354478 17.90711062 135.31785167 20.46449661 135.31578636 C23.95629217 135.31246127 27.44783183 135.29697653 30.9395752 135.2784729 C32.45710947 135.281375 32.45710947 135.281375 34.005301 135.28433573 C42.33961415 135.21832089 49.25601416 134.36453419 56 129 C60.96585608 123.62032258 62.35196466 117.94529178 64 111 C63.195625 110.95875 62.39125 110.9175 61.5625 110.875 C54.09942367 109.04196371 48.47289061 104.34937108 44.21875 98.0390625 C38.95838905 89.23807399 38.41008771 78.92555016 40.69140625 68.98828125 C43.99890597 59.9514724 49.50543069 54.9149845 57.6328125 50.06640625 C60 49 60 49 64 49 C63.03282514 34.10714174 63.03282514 34.10714174 55 22.125 C47.75888343 16.99587576 40.88010919 16.8465061 32.2265625 16.68359375 C31.3028183 16.66281265 30.3790741 16.64203156 29.42733765 16.62062073 C26.49329656 16.55553881 23.55917038 16.49643357 20.625 16.4375 C18.62889765 16.3942754 16.63280373 16.35065988 14.63671875 16.30664062 C9.75789844 16.1999001 4.87899301 16.09851752 0 16 C0 10.72 0 5.44 0 0 Z M58.625 71.625 C56.42092107 76.20270239 56.2028361 80.00552411 57 85 C59.32968931 89.83858548 62.16141452 92.67031069 67 95 C71.99447589 95.7971639 75.79729761 95.57907893 80.375 93.375 C83.95907713 90.13226355 86.59535241 87.53524104 87.3828125 82.6015625 C87.63883919 76.91777006 86.93626932 73.35061345 83 69 C78.64938655 65.06373068 75.08222994 64.36116081 69.3984375 64.6171875 C64.46475896 65.40464759 61.86773645 68.04092287 58.625 71.625 Z " fill="#000000" transform="translate(400,88)"/>
<path d="M0 0 C0.79339783 0.00141495 1.58679565 0.0028299 2.40423584 0.00428772 C4.93098772 0.0098721 7.45765004 0.02242171 9.984375 0.03515625 C11.70051955 0.04017327 13.41666549 0.04473582 15.1328125 0.04882812 C19.33339535 0.05898427 23.53378527 0.07856266 27.734375 0.09765625 C27.734375 5.37765625 27.734375 10.65765625 27.734375 16.09765625 C25.88972656 16.14664063 24.04507813 16.195625 22.14453125 16.24609375 C19.69529871 16.32116601 17.24608065 16.39671189 14.796875 16.47265625 C12.97833008 16.5190625 12.97833008 16.5190625 11.12304688 16.56640625 C-1.38323546 16.79285957 -1.38323546 16.79285957 -12.640625 21.66015625 C-14.96598524 23.27259741 -16.52986792 24.18573722 -19.265625 25.09765625 C-20.36027796 26.90532286 -20.36027796 26.90532286 -21.265625 29.09765625 C-21.67941406 29.84402344 -22.09320313 30.59039062 -22.51953125 31.359375 C-25.61049336 37.08918834 -26.95082322 41.59175277 -27.265625 48.09765625 C-26.61335938 48.40058594 -25.96109375 48.70351563 -25.2890625 49.015625 C-15.58846884 53.66561458 -9.25957166 58.67559968 -5.1484375 68.8671875 C-2.78800547 77.50469762 -3.11399396 87.87389016 -7.0078125 95.98828125 C-11.89457253 104.18346887 -18.4392751 108.71702657 -27.265625 112.09765625 C-26.48628069 119.07685906 -25.56007961 124.71806755 -21.38671875 130.4765625 C-20.265625 132.09765625 -20.265625 132.09765625 -19.265625 135.09765625 C-17.46427385 136.19443349 -17.46427385 136.19443349 -15.265625 137.09765625 C-14.11126953 137.71833984 -14.11126953 137.71833984 -12.93359375 138.3515625 C-12.11503906 138.78339844 -11.29648437 139.21523438 -10.453125 139.66015625 C-9.64230469 140.09457031 -8.83148438 140.52898437 -7.99609375 140.9765625 C-0.77566896 143.94117182 7.48947368 143.40449532 15.171875 143.66015625 C16.38037109 143.70333984 17.58886719 143.74652344 18.83398438 143.79101562 C21.80066499 143.89654972 24.76750615 143.99755371 27.734375 144.09765625 C27.734375 149.37765625 27.734375 154.65765625 27.734375 160.09765625 C22.9323853 160.16698979 18.13217185 160.22657896 13.33007812 160.26245117 C11.70078609 160.27742391 10.07153355 160.29780946 8.44238281 160.32397461 C-7.60131721 160.57496501 -19.67186958 158.29649593 -31.953125 147.09765625 C-39.71446892 139.00545575 -44.44004063 128.53921971 -44.328125 117.34765625 C-44.31910156 116.1771875 -44.31007813 115.00671875 -44.30078125 113.80078125 C-44.28917969 112.90875 -44.27757813 112.01671875 -44.265625 111.09765625 C-45.1628125 110.98550781 -46.06 110.87335938 -46.984375 110.7578125 C-54.35380274 109.27515382 -59.92143445 104.25612223 -64.046875 98.13671875 C-69.30723595 89.33573024 -69.85553729 79.02320641 -67.57421875 69.0859375 C-64.26671903 60.04912865 -58.76019431 55.01264075 -50.6328125 50.1640625 C-48.265625 49.09765625 -48.265625 49.09765625 -44.265625 49.09765625 C-44.31203125 48.28683594 -44.3584375 47.47601563 -44.40625 46.640625 C-44.86454566 32.58076886 -40.06632191 22.32663722 -30.765625 11.97265625 C-22.37054914 3.85416235 -11.4969426 -0.07738414 0 0 Z M-49.640625 71.72265625 C-51.84470393 76.30035864 -52.0627889 80.10318036 -51.265625 85.09765625 C-48.93593569 89.93624173 -46.10421048 92.76796694 -41.265625 95.09765625 C-36.27114911 95.89482015 -32.46832739 95.67673518 -27.890625 93.47265625 C-24.30654787 90.2299198 -21.67027259 87.63289729 -20.8828125 82.69921875 C-20.62678581 77.01542631 -21.32935568 73.4482697 -25.265625 69.09765625 C-29.61623845 65.16138693 -33.18339506 64.45881706 -38.8671875 64.71484375 C-43.80086604 65.50230384 -46.39788855 68.13857912 -49.640625 71.72265625 Z " fill="#000000" transform="translate(68.265625,223.90234375)"/>
<path d="M0 0 C8.95226538 6.44803034 15.032023 14.68942526 17.58203125 25.4921875 C17.85520941 28.58671385 17.786184 31.378858 17.58203125 34.4921875 C11.97203125 34.4921875 6.36203125 34.4921875 0.58203125 34.4921875 C0.33453125 33.1309375 0.08703125 31.7696875 -0.16796875 30.3671875 C-1.80791942 23.10129494 -5.55183641 18.80199901 -11.41796875 14.4921875 C-17.45923774 11.59318929 -24.31560223 11.35226203 -30.765625 13.14453125 C-36.57662989 15.75332535 -40.79704631 20.13932054 -43.55859375 25.8515625 C-45.52650832 31.89842728 -45.47767376 39.02631024 -42.85546875 44.8671875 C-39.52223672 50.54077393 -34.6618877 54.4821588 -28.41796875 56.4921875 C-26.19428819 56.88373169 -23.96899705 57.18824436 -21.72998047 57.47924805 C-8.85424814 59.15568399 0.62000927 62.65623986 9.58203125 72.4921875 C17.54641887 83.37287123 18.75275035 94.39869745 17.58203125 107.4921875 C15.45573743 118.25097958 8.78344442 126.65794099 0 132.984375 C-10.50675303 139.53624361 -22.7242094 140.2392093 -34.703125 137.83203125 C-44.84692997 134.53636466 -52.87064618 127.51736516 -58.41796875 118.4921875 C-61.71546235 111.74110593 -62.9081014 105.96671045 -62.41796875 98.4921875 C-56.80796875 98.4921875 -51.19796875 98.4921875 -45.41796875 98.4921875 C-45.17046875 99.8534375 -44.92296875 101.2146875 -44.66796875 102.6171875 C-43.02801808 109.88308006 -39.28410109 114.18237599 -33.41796875 118.4921875 C-27.37669976 121.39118571 -20.52033527 121.63211297 -14.0703125 119.83984375 C-8.25930761 117.23104965 -4.03889119 112.84505446 -1.27734375 107.1328125 C0.69057082 101.08594772 0.64173626 93.95806476 -1.98046875 88.1171875 C-5.31370078 82.44360107 -10.1740498 78.5022162 -16.41796875 76.4921875 C-18.64164931 76.10064331 -20.86694045 75.79613064 -23.10595703 75.50512695 C-35.98168936 73.82869101 -45.45594677 70.32813514 -54.41796875 60.4921875 C-62.38235637 49.61150377 -63.58868785 38.58567755 -62.41796875 25.4921875 C-60.29167493 14.73339542 -53.61938192 6.32643401 -44.8359375 0 C-31.48165159 -8.32755148 -13.35428591 -8.32755148 0 0 Z " fill="#000000" transform="translate(430.41796875,301.5078125)"/>
<path d="M0 0 C8.95226538 6.44803034 15.032023 14.68942526 17.58203125 25.4921875 C17.85520941 28.58671385 17.786184 31.378858 17.58203125 34.4921875 C11.97203125 34.4921875 6.36203125 34.4921875 0.58203125 34.4921875 C0.33453125 33.1309375 0.08703125 31.7696875 -0.16796875 30.3671875 C-1.80791942 23.10129494 -5.55183641 18.80199901 -11.41796875 14.4921875 C-17.45923774 11.59318929 -24.31560223 11.35226203 -30.765625 13.14453125 C-36.57662989 15.75332535 -40.79704631 20.13932054 -43.55859375 25.8515625 C-45.52650832 31.89842728 -45.47767376 39.02631024 -42.85546875 44.8671875 C-39.52223672 50.54077393 -34.6618877 54.4821588 -28.41796875 56.4921875 C-26.19428819 56.88373169 -23.96899705 57.18824436 -21.72998047 57.47924805 C-8.85424814 59.15568399 0.62000927 62.65623986 9.58203125 72.4921875 C17.54641887 83.37287123 18.75275035 94.39869745 17.58203125 107.4921875 C15.45573743 118.25097958 8.78344442 126.65794099 0 132.984375 C-10.50675303 139.53624361 -22.7242094 140.2392093 -34.703125 137.83203125 C-44.84692997 134.53636466 -52.87064618 127.51736516 -58.41796875 118.4921875 C-61.71546235 111.74110593 -62.9081014 105.96671045 -62.41796875 98.4921875 C-56.80796875 98.4921875 -51.19796875 98.4921875 -45.41796875 98.4921875 C-45.17046875 99.8534375 -44.92296875 101.2146875 -44.66796875 102.6171875 C-43.02801808 109.88308006 -39.28410109 114.18237599 -33.41796875 118.4921875 C-27.37669976 121.39118571 -20.52033527 121.63211297 -14.0703125 119.83984375 C-8.25930761 117.23104965 -4.03889119 112.84505446 -1.27734375 107.1328125 C0.69057082 101.08594772 0.64173626 93.95806476 -1.98046875 88.1171875 C-5.31370078 82.44360107 -10.1740498 78.5022162 -16.41796875 76.4921875 C-18.64164931 76.10064331 -20.86694045 75.79613064 -23.10595703 75.50512695 C-35.98168936 73.82869101 -45.45594677 70.32813514 -54.41796875 60.4921875 C-62.38235637 49.61150377 -63.58868785 38.58567755 -62.41796875 25.4921875 C-60.29167493 14.73339542 -53.61938192 6.32643401 -44.8359375 0 C-31.48165159 -8.32755148 -13.35428591 -8.32755148 0 0 Z " fill="#000000" transform="translate(334.41796875,301.5078125)"/>
<path d="M0 0 C0.66 -0.0103125 1.32 -0.020625 2 -0.03125 C4.94979002 0.75228797 6.02545332 2.17077915 8 4.5 C9.18064005 7.05448548 10.20555214 9.51860567 11.1640625 12.15234375 C11.44220795 12.88949112 11.72035339 13.62663849 12.00692749 14.38612366 C12.88987299 16.73289005 13.75768819 19.08491672 14.625 21.4375 C15.21513579 23.01535209 15.80627168 24.59283053 16.3984375 26.16992188 C17.48627001 29.06924332 18.56748207 31.97087094 19.64306641 34.87475586 C20.45020846 37.03115246 21.2859789 39.17770735 22.18115234 41.29907227 C23 43.5 23 43.5 23 46.5 C23.66 46.5 24.32 46.5 25 46.5 C25.14767822 45.96810059 25.29535645 45.43620117 25.44750977 44.88818359 C27.65484389 37.22776141 30.35409314 29.76021025 33.13354492 22.29345703 C33.94231946 20.11200079 34.73572485 17.92530614 35.52929688 15.73828125 C36.04854105 14.33819339 36.56869108 12.93844108 37.08984375 11.5390625 C37.3222728 10.89111725 37.55470184 10.243172 37.79417419 9.57559204 C39.25180475 5.72625395 40.80554658 3.11929928 44 0.5 C46 -0.03125 46 -0.03125 48 0 C48.66 -0.0103125 49.32 -0.020625 50 -0.03125 C53.11687977 0.79667119 54.08432288 1.86830132 56 4.5 C56.59579234 7.95164852 56.50458284 11.37371449 56.45410156 14.86816406 C56.45468567 15.92213379 56.45526978 16.97610352 56.45587158 18.06201172 C56.45308414 21.54688411 56.42195968 25.03090196 56.390625 28.515625 C56.38316499 30.93129001 56.37747093 33.34696106 56.37347412 35.76263428 C56.35819905 42.1217112 56.31890049 48.48042289 56.2746582 54.83935547 C56.23374624 61.32774922 56.21547178 67.81620196 56.1953125 74.3046875 C56.15240855 87.03661884 56.0841341 99.76827905 56 112.5 C50.72 112.5 45.44 112.5 40 112.5 C39.67 94.68 39.34 76.86 39 58.5 C35.04 68.4 35.04 68.4 31 78.5 C27.78563471 80.64291019 25.82573391 80.80025791 22.03515625 80.9609375 C20 80.5 20 80.5 16 76.5 C12.535 67.59 12.535 67.59 9 58.5 C8.67 76.32 8.34 94.14 8 112.5 C2.72 112.5 -2.56 112.5 -8 112.5 C-8.09259653 98.48768843 -8.16371264 84.47544941 -8.20724869 70.46289444 C-8.22814165 63.95659851 -8.25649108 57.45051157 -8.30175781 50.94433594 C-8.3451537 44.66792491 -8.36912422 38.39171516 -8.37950897 32.11516571 C-8.38691153 29.71810486 -8.40136659 27.32105527 -8.42292023 24.9240799 C-8.45187016 21.57186395 -8.45595941 18.22048448 -8.45410156 14.86816406 C-8.46848267 13.87266541 -8.48286377 12.87716675 -8.49768066 11.85150146 C-8.45724277 5.12814614 -8.45724277 5.12814614 -6.09661865 1.88519287 C-3.8365949 0.39204161 -2.68570721 -0.04196418 0 0 Z " fill="#000000" transform="translate(216,39.5)"/>
<path d="M0 0 C8.95226538 6.44803034 15.032023 14.68942526 17.58203125 25.4921875 C17.85520941 28.58671385 17.786184 31.378858 17.58203125 34.4921875 C11.97203125 34.4921875 6.36203125 34.4921875 0.58203125 34.4921875 C0.33453125 33.1309375 0.08703125 31.7696875 -0.16796875 30.3671875 C-1.13820922 25.90267518 -2.74364814 23.14709234 -5.41796875 19.4921875 C-5.41796875 18.8321875 -5.41796875 18.1721875 -5.41796875 17.4921875 C-5.95421875 17.2240625 -6.49046875 16.9559375 -7.04296875 16.6796875 C-8.76606025 15.81814175 -10.46126276 14.90008817 -12.13671875 13.94921875 C-17.74521447 11.45877958 -23.40146457 11.72470633 -29.41796875 12.4921875 C-31.91813895 13.56688753 -33.82954612 14.72733501 -35.96484375 16.3984375 C-37.41796875 17.4921875 -37.41796875 17.4921875 -39.41796875 17.4921875 C-43.50077429 25.34373661 -45.53243551 32.04662522 -45.56323242 40.90551758 C-45.56961227 42.15734329 -45.57599213 43.40916901 -45.58256531 44.69892883 C-45.58409446 46.05319174 -45.58520816 47.40745517 -45.5859375 48.76171875 C-45.58915566 50.16647881 -45.59252015 51.57123855 -45.59602356 52.97599792 C-45.60199596 55.915403 -45.60386544 58.85477875 -45.60327148 61.79418945 C-45.60317003 65.53960029 -45.61681288 69.28482082 -45.63404369 73.03018665 C-45.64522544 75.93089136 -45.6471888 78.83155097 -45.64666176 81.73227501 C-45.64783295 83.11201317 -45.6522057 84.49175283 -45.65999413 85.8714695 C-45.71286789 96.20613331 -45.67864226 104.9359337 -39.41796875 113.4921875 C-39.41796875 114.1521875 -39.41796875 114.8121875 -39.41796875 115.4921875 C-38.09538403 116.17993155 -36.75810372 116.83930123 -35.41796875 117.4921875 C-34.42796875 118.0284375 -33.43796875 118.5646875 -32.41796875 119.1171875 C-26.68740032 121.5203291 -20.01710423 121.50162783 -14.078125 119.8359375 C-8.13080994 117.18761295 -4.04639862 112.67150296 -1.10546875 106.9296875 C-0.32686712 104.16919081 0.11050233 101.32136105 0.58203125 98.4921875 C6.19203125 98.4921875 11.80203125 98.4921875 17.58203125 98.4921875 C18.267198 108.94098047 15.32101461 117.39525715 8.5546875 125.42578125 C0.42310232 133.943818 -8.22599368 138.49468278 -20.05322266 138.96289062 C-32.56752551 139.11793051 -42.19083698 136.30069703 -51.41796875 127.4921875 C-62.34814951 116.04255261 -63.02922999 103.86933951 -62.94921875 88.8671875 C-62.95191952 87.07079865 -62.95580677 85.27441124 -62.96081543 83.47802734 C-62.96668302 79.72934937 -62.95823661 75.98105494 -62.93945312 72.23242188 C-62.91666514 67.45467589 -62.92980303 62.67782905 -62.95374298 57.90011597 C-62.96827551 54.19548914 -62.96356102 50.49107151 -62.95323181 46.78643799 C-62.95058507 45.02597952 -62.95376106 43.26550134 -62.96315002 41.50506592 C-63.02190429 27.39626455 -61.59913851 16.15721483 -51.41796875 5.4921875 C-37.63784493 -7.66275112 -16.31305228 -10.17259803 0 0 Z " fill="#000000" transform="translate(238.41796875,301.5078125)"/>
<path d="M0 0 C5.28 0 10.56 0 16 0 C16 15.84 16 31.68 16 48 C26.56 48 37.12 48 48 48 C48 32.16 48 16.32 48 0 C53.28 0 58.56 0 64 0 C64 36.96 64 73.92 64 112 C58.72 112 53.44 112 48 112 C48 96.16 48 80.32 48 64 C37.44 64 26.88 64 16 64 C16 79.84 16 95.68 16 112 C10.72 112 5.44 112 0 112 C0 75.04 0 38.08 0 0 Z " fill="#000000" transform="translate(48,40)"/>
<path d="M0 0 C21.12 0 42.24 0 64 0 C64 5.28 64 10.56 64 16 C56.08 16 48.16 16 40 16 C40 47.68 40 79.36 40 112 C34.72 112 29.44 112 24 112 C24 80.32 24 48.64 24 16 C16.08 16 8.16 16 0 16 C0 10.72 0 5.44 0 0 Z " fill="#000000" transform="translate(128,40)"/>
<path d="M0 0 C5.28 0 10.56 0 16 0 C16.01981934 2.63959717 16.03963867 5.27919434 16.06005859 7.9987793 C16.12696547 16.72002702 16.20460508 25.4411554 16.28752708 34.16226482 C16.33747283 39.44986535 16.38380315 44.73744607 16.421875 50.02514648 C16.45874937 55.12806631 16.50511542 60.2308197 16.55806351 65.33359718 C16.57659597 67.28040459 16.59170817 69.22724766 16.60334396 71.17410851 C16.62022592 73.90099506 16.6492659 76.62750139 16.68115234 79.35424805 C16.68331253 80.15913666 16.68547272 80.96402527 16.68769836 81.79330444 C16.74969143 85.9433167 17.03714022 89.30309547 19 93 C22.39735932 95.65010119 26.47456185 95.3459467 30.609375 95.4140625 C31.33618469 95.43342865 32.06299438 95.4527948 32.81182861 95.4727478 C35.12443448 95.53234271 37.43709067 95.57884758 39.75 95.625 C41.32163582 95.66319836 42.89325113 95.70225117 44.46484375 95.7421875 C48.30978671 95.83963062 52.15452137 95.9193553 56 96 C56 101.28 56 106.56 56 112 C50.46826209 112.12437321 44.93735281 112.21470142 39.40454102 112.2746582 C37.5258159 112.29967344 35.64718684 112.33369706 33.76879883 112.37719727 C13.52731978 112.83393359 13.52731978 112.83393359 7 107 C0.9430485 100.78365504 -0.44352134 94.86826342 -0.34057617 86.50634766 C-0.34101425 85.56912872 -0.34145233 84.63190979 -0.34190369 83.66629028 C-0.33982099 80.58199921 -0.31651414 77.4982581 -0.29296875 74.4140625 C-0.28737096 72.27029721 -0.28310173 70.12652807 -0.28010559 67.98275757 C-0.26867129 62.35041643 -0.23921608 56.71830872 -0.20599365 51.08605957 C-0.17526239 45.33474891 -0.16159371 39.58340041 -0.14648438 33.83203125 C-0.11434519 22.55458515 -0.06316578 11.27731201 0 0 Z " fill="#000000" transform="translate(288,40)"/>
</svg>
