<?xml version="1.0" encoding="UTF-8"?>
<svg version="1.1" xmlns="http://www.w3.org/2000/svg" width="512" height="512">
<path d="M0 0 C11.12986486 10.18227575 21.31239787 20.89697865 28.5234375 34.30859375 C28.5234375 35.29859375 28.5234375 36.28859375 28.5234375 37.30859375 C26.03541076 39.03561356 23.58144874 40.55516118 20.9609375 42.05859375 C19.30400987 43.03832626 17.64916106 44.02158056 15.99609375 45.0078125 C15.10937988 45.53681152 14.22266602 46.06581055 13.30908203 46.61083984 C8.43150365 49.58355501 3.66945309 52.73122508 -1.1015625 55.87109375 C-10.14984928 61.81162175 -19.26424582 67.62610523 -28.4765625 73.30859375 C-31.20415216 69.96684483 -33.71440423 66.54476013 -36.1640625 62.99609375 C-44.03558139 52.20543225 -53.12726173 45.58193857 -66.3515625 42.93359375 C-78.17995032 41.3595318 -89.7708797 42.71710551 -99.640625 49.87890625 C-105.29806577 55.0548627 -108.350677 61.77641973 -109.4765625 69.30859375 C-109.66046867 79.3314799 -107.71134769 87.25037811 -101.2265625 94.99609375 C-99.8653125 96.14078125 -99.8653125 96.14078125 -98.4765625 97.30859375 C-97.86804443 97.82317139 -97.25952637 98.33774902 -96.63256836 98.86791992 C-90.88940167 103.54531718 -84.99371315 106.82941881 -78.2890625 109.93359375 C-77.22115479 110.43793945 -76.15324707 110.94228516 -75.05297852 111.46191406 C-65.77375835 115.80239885 -56.37504913 119.85762931 -46.96170044 123.89620972 C-37.94540237 127.76594675 -29.00697896 131.69250545 -20.34570312 136.31201172 C-19.01496975 137.02152761 -17.6798338 137.72281249 -16.34179688 138.41845703 C11.44171019 152.89354394 35.46380284 172.76327922 45.5234375 203.30859375 C48.70929578 214.10790077 49.73263203 224.46366807 49.76367188 235.68457031 C49.77328677 237.77580975 49.80433042 239.86602532 49.8359375 241.95703125 C50.03816375 267.45033042 41.32064712 289.95624181 23.5234375 308.30859375 C22.73259766 309.20964844 22.73259766 309.20964844 21.92578125 310.12890625 C7.74929455 325.71941592 -14.41230041 333.8632699 -34.4765625 338.30859375 C-35.19875977 338.47230469 -35.92095703 338.63601563 -36.66503906 338.8046875 C-59.74078318 343.77516376 -86.4554583 343.21101292 -109.4765625 338.30859375 C-110.26981934 338.14230469 -111.06307617 337.97601563 -111.88037109 337.8046875 C-146.68885604 330.22083361 -178.05240462 310.46737213 -197.70751953 280.42724609 C-204.60282851 269.4932164 -204.60282851 269.4932164 -204.25732422 266.25170898 C-202.85648339 262.76537622 -199.10775189 261.57547025 -195.9140625 259.93359375 C-194.26937568 259.05480596 -192.62622644 258.17313635 -190.984375 257.2890625 C-190.09782227 256.81388184 -189.21126953 256.33870117 -188.29785156 255.84912109 C-183.23524084 253.08474989 -178.26563677 250.16165062 -173.2890625 247.24609375 C-171.76007324 246.35482788 -171.76007324 246.35482788 -170.20019531 245.44555664 C-165.6771365 242.80224373 -161.17153109 240.13921027 -156.71875 237.37890625 C-156.02289795 236.949729 -155.3270459 236.52055176 -154.61010742 236.07836914 C-153.35185529 235.29778242 -152.09896612 234.50845406 -150.8527832 233.70874023 C-149.20703125 232.6875 -149.20703125 232.6875 -146.4765625 231.30859375 C-142.57055548 232.61059609 -142.1047082 234.14482186 -139.9765625 237.62109375 C-130.53298297 252.13111923 -118.0072538 264.29743328 -101.4765625 270.30859375 C-100.45046875 270.70046875 -99.424375 271.09234375 -98.3671875 271.49609375 C-81.11487172 277.11675771 -60.18579674 276.66118257 -43.703125 269.0234375 C-36.07030773 264.90905101 -28.49367414 258.27546186 -25.87890625 249.73046875 C-24.07571943 238.8763345 -24.81737987 229.13137716 -31.06640625 219.98046875 C-45.28131115 202.30950874 -73.4666242 194.0734301 -93.63354492 185.53710938 C-102.4428643 181.79409119 -111.04320533 177.83427358 -119.4765625 173.30859375 C-120.08097168 172.98439453 -120.68538086 172.66019531 -121.30810547 172.32617188 C-133.59164349 165.6808199 -144.31257822 157.877696 -154.4765625 148.30859375 C-155.16492188 147.69628906 -155.85328125 147.08398438 -156.5625 146.453125 C-173.39685703 130.84973874 -181.98548262 106.41391235 -183.38671875 83.92578125 C-183.41636719 83.06210938 -183.44601562 82.1984375 -183.4765625 81.30859375 C-183.51652344 80.32117188 -183.55648438 79.33375 -183.59765625 78.31640625 C-184.12592563 52.8973266 -176.78599518 28.20795348 -159.3515625 9.23828125 C-121.00430993 -30.5979314 -42.77429256 -36.45051841 0 0 Z " fill="#000000" transform="translate(462.4765625,96.69140625)"/>
<path d="M0 0 C24.42 0 48.84 0 74 0 C74.06626785 33.29161037 74.12160952 66.58315618 74.15319599 99.87481277 C74.15694763 103.81465394 74.16083065 107.75449497 74.16479492 111.69433594 C74.16558185 112.47861203 74.16636878 113.26288812 74.16717956 114.07093015 C74.18019583 126.73183261 74.20382859 139.39269375 74.23145839 152.05357179 C74.25961822 165.06688859 74.27619849 178.08018392 74.28226548 191.09352994 C74.28636012 199.10869324 74.299242 207.12373974 74.3237494 215.13886705 C74.34164096 221.3085547 74.34333919 227.47815526 74.33932304 233.6478653 C74.34014179 236.16151137 74.34602016 238.67516228 74.35761642 241.18878174 C74.51044189 276.05430392 69.14904123 307.40802448 44.6015625 333.5546875 C21.04749102 356.16972623 -11.45584298 360.50590814 -42.6796875 360.20703125 C-73.92154392 359.55465838 -102.35370554 347.60223886 -124.56103516 325.50488281 C-132.7847296 316.9044667 -143.36884906 303.97666988 -145 292 C-135.6751981 286.11339321 -126.29512394 280.33437094 -116.81347656 274.70336914 C-112.2306699 271.97259692 -107.69430334 269.18575507 -103.19921875 266.3125 C-102.24684326 265.70768799 -101.29446777 265.10287598 -100.31323242 264.47973633 C-98.46946215 263.30511882 -96.63208897 262.12038521 -94.80200195 260.92456055 C-93.97015381 260.39644775 -93.13830566 259.86833496 -92.28125 259.32421875 C-91.54970703 258.85072998 -90.81816406 258.37724121 -90.06445312 257.8894043 C-88 257 -88 257 -85.88745117 257.13818359 C-83.52395423 258.21736406 -82.84118326 259.24260932 -81.51953125 261.46484375 C-81.08229736 262.17801758 -80.64506348 262.89119141 -80.19458008 263.62597656 C-79.73849365 264.3887793 -79.28240723 265.15158203 -78.8125 265.9375 C-71.0173478 278.44002102 -63.0633803 288.86932517 -48.12109375 292.49609375 C-36.29098621 294.40608608 -24.50515318 293.57815167 -14.125 287.3125 C-5.9607611 281.3788478 -3.16555797 272.63287645 -1.47375584 263.00528622 C-0.79685466 258.12319402 -0.84665616 253.24626006 -0.84178162 248.32557678 C-0.83684364 247.26195575 -0.83190566 246.19833471 -0.82681805 245.10248274 C-0.81148219 241.54496724 -0.80309301 237.98746974 -0.79467773 234.42993164 C-0.78509614 231.87720583 -0.77508589 229.32448161 -0.76467896 226.77175903 C-0.74325083 221.27922661 -0.7248007 215.78669707 -0.70907402 210.29414558 C-0.68633091 202.35290709 -0.65819432 194.41169486 -0.62875474 186.47047871 C-0.58113317 173.5853926 -0.53785432 160.70029573 -0.49731445 147.81518555 C-0.45793183 135.30085412 -0.416499 122.78653223 -0.37231445 110.2722168 C-0.36822804 109.11452761 -0.36822804 109.11452761 -0.36405908 107.93345077 C-0.35037915 104.06147063 -0.33665897 100.18949064 -0.32291877 96.31751072 C-0.20903941 64.21169259 -0.10301273 32.1058553 0 0 Z " fill="#000000" transform="translate(145,78)"/>
</svg>
