<?xml version="1.0" encoding="UTF-8"?>
<svg version="1.1" xmlns="http://www.w3.org/2000/svg" width="512" height="512">
<path d="M0 0 C1.53110413 0.00323273 1.53110413 0.00323273 3.09313965 0.00653076 C17.73579998 0.05619901 32.04738899 0.36670312 46.4375 3.3125 C47.43410645 3.50585938 48.43071289 3.69921875 49.45751953 3.8984375 C83.51996197 10.62887284 119.33647166 23.27351237 146.78125 45.18359375 C147.3278125 45.55613281 147.874375 45.92867187 148.4375 46.3125 C151.3694479 45.66890168 153.92743517 44.5525838 156.63671875 43.27734375 C166.7796513 38.94368651 178.98493541 38.41768935 189.5 41.9375 C201.5760798 47.22656405 209.27285901 54.69909373 214.4921875 66.796875 C218.79188141 78.23903564 217.38460922 91.40719354 212.4375 102.3125 C211.74333984 103.73175781 211.74333984 103.73175781 211.03515625 105.1796875 C210.08137207 108.44502709 210.08137207 108.44502709 212.11328125 111.6171875 C212.97440058 112.82022434 213.85469134 114.0096857 214.75 115.1875 C215.69731112 116.52017762 216.63989721 117.85622452 217.578125 119.1953125 C218.05958984 119.87754883 218.54105469 120.55978516 219.03710938 121.26269531 C222.95948566 127.00402574 226.20045028 133.16754355 229.4375 139.3125 C229.80198242 139.99666992 230.16646484 140.68083984 230.54199219 141.38574219 C241.74992102 162.72334369 249.08522127 186.66331671 253.4375 210.3125 C253.59831055 211.11316895 253.75912109 211.91383789 253.92480469 212.73876953 C259.4169441 240.81662453 259.17146692 274.30227935 253.4375 302.3125 C253.24414062 303.30910645 253.05078125 304.30571289 252.8515625 305.33251953 C244.73278127 346.42132055 227.36334885 383.51549494 201.4375 416.3125 C200.62539063 417.35019531 199.81328125 418.38789063 198.9765625 419.45703125 C186.30169231 435.03072821 171.73812389 449.56501289 155.4375 461.3125 C154.34912639 462.12869833 153.26189856 462.9464266 152.17578125 463.765625 C120.96830702 487.01574208 84.64902049 502.28024075 46.4375 509.3125 C45.63683105 509.47331055 44.83616211 509.63412109 44.01123047 509.79980469 C15.94422956 515.289821 -17.56434244 515.06193715 -45.5625 509.3125 C-46.57505859 509.11382324 -47.58761719 508.91514648 -48.63085938 508.71044922 C-82.38269989 501.96109225 -117.59825792 489.32050348 -144.8359375 467.69921875 C-147.52695123 465.97270956 -147.52695123 465.97270956 -150.6171875 466.94921875 C-152.07511719 467.62404297 -152.07511719 467.62404297 -153.5625 468.3125 C-164.55093832 473.29732136 -177.00821757 474.57609946 -188.625 470.6875 C-200.7010798 465.39843595 -208.39785901 457.92590627 -213.6171875 445.828125 C-217.91688141 434.38596436 -216.50960922 421.21780646 -211.5625 410.3125 C-211.09972656 409.36632812 -210.63695312 408.42015625 -210.16015625 407.4453125 C-209.20637207 404.17997291 -209.20637207 404.17997291 -211.23828125 401.0078125 C-212.09940058 399.80477566 -212.97969134 398.6153143 -213.875 397.4375 C-214.82231112 396.10482238 -215.76489721 394.76877548 -216.703125 393.4296875 C-217.42532227 392.40633301 -217.42532227 392.40633301 -218.16210938 391.36230469 C-222.08448566 385.62097426 -225.32545028 379.45745645 -228.5625 373.3125 C-228.92698242 372.62833008 -229.29146484 371.94416016 -229.66699219 371.23925781 C-240.87492102 349.90165631 -248.21022127 325.96168329 -252.5625 302.3125 C-252.80371582 301.11149658 -252.80371582 301.11149658 -253.04980469 299.88623047 C-258.52591256 271.89033464 -258.40957699 238.22927188 -252.5625 210.3125 C-252.36382324 209.33764648 -252.16514648 208.36279297 -251.96044922 207.35839844 C-246.21632474 179.89847151 -234.08315964 126.02695373 -208.76171875 109.109375 C-205.39470595 107.82528143 -203.21291034 108.4173769 -199.8125 109.4375 C-194.98117044 112.22480552 -194.98117044 112.22480552 -193.5625 115.3125 C-193.06088776 121.54030905 -193.77093652 124.55637541 -197.3125 129.875 C-201.61791087 136.58055371 -205.39569815 143.48852704 -209.0625 150.5625 C-209.85479004 152.08145874 -209.85479004 152.08145874 -210.66308594 153.63110352 C-213.39768788 158.84886362 -213.39768788 158.84886362 -215.5625 164.3125 C-183.5525 164.3125 -151.5425 164.3125 -118.5625 164.3125 C-118.2325 162.3325 -117.9025 160.3525 -117.5625 158.3125 C-112.79014478 146.83518289 -104.45659924 139.10178666 -93.1328125 134.27734375 C-88.84284666 132.72457834 -85.17507673 131.95768641 -80.5625 132.3125 C-80.52511719 131.746521 -80.48773438 131.18054199 -80.44921875 130.59741211 C-79.84445621 123.17498946 -78.3222995 116.10192946 -76.5625 108.875 C-76.10218384 106.98430786 -76.10218384 106.98430786 -75.63256836 105.05541992 C-68.75255801 77.34081474 -58.89987986 49.00905998 -42.5625 25.3125 C-75.3736623 32.60792016 -105.91045084 43.81888832 -133.5625 63.3125 C-137.58108595 65.9915573 -140.83891721 66.00860694 -145.5625 65.3125 C-148.43279869 63.51856332 -150.05381638 62.32986724 -151.5625 59.3125 C-152.26053251 52.33217494 -152.26053251 52.33217494 -149.5703125 48.40234375 C-146.25717524 44.69186375 -142.27870502 42.20441214 -138.0625 39.625 C-136.81388184 38.85289185 -136.81388184 38.85289185 -135.54003906 38.06518555 C-105.69480218 19.86693825 -73.18578677 7.55390153 -38.5625 2.3125 C-37.44367432 2.13517334 -36.32484863 1.95784668 -35.17211914 1.77514648 C-23.45014016 0.09373654 -11.82750982 -0.04483932 0 0 Z M-24.5625 37.3125 C-44.74327011 65.07422027 -55.20027228 101.71211433 -60.5625 135.3125 C-59.69367188 135.869375 -58.82484375 136.42625 -57.9296875 137 C-46.11376049 144.7443612 -42.35162693 150.41859537 -36.5625 164.3125 C-2.9025 164.3125 30.7575 164.3125 65.4375 164.3125 C64.70539902 154.79518726 63.7015882 146.13960309 61.875 136.875 C61.74567078 136.21452667 61.61634155 135.55405334 61.48309326 134.87356567 C54.27060729 98.28146375 44.29459228 48.46456904 12.515625 24.6875 C-2.26643549 14.90688855 -15.33536561 25.35139987 -24.5625 37.3125 Z M42.4375 24.3125 C43.92764653 27.4254239 45.62659628 30.39773919 47.35522461 33.38330078 C69.67097418 72.20861214 79.71648565 115.80347239 85.99902344 159.81176758 C86.31262606 162.30110376 86.31262606 162.30110376 87.4375 164.3125 C130.3375 164.3125 173.2375 164.3125 217.4375 164.3125 C210.23306078 149.1031283 203.37030892 134.7838721 193.4375 121.3125 C192.92445313 121.456875 192.41140625 121.60125 191.8828125 121.75 C177.10169156 125.33330205 162.82175766 124.52315494 149.6875 116.625 C141.19876919 110.58114515 135.6587855 101.44179508 133.4375 91.3125 C133.31555307 88.42547731 133.24762941 85.57429066 133.25 82.6875 C133.24935547 81.88586426 133.24871094 81.08422852 133.24804688 80.25830078 C133.29989533 74.43124147 133.85279522 68.94386164 135.4375 63.3125 C108.42702327 43.11957148 75.51137314 30.07323552 42.4375 24.3125 Z M158.65234375 67.25390625 C153.35893419 74.04899228 152.69012877 79.78813534 153.4375 88.3125 C155.18418927 95.02112184 159.61481898 98.85715131 165.4375 102.3125 C171.51293566 104.33764522 178.88985531 104.41296489 184.8125 101.8125 C189.95588337 98.8166671 193.57288445 93.90634665 195.4375 88.3125 C196.09856953 80.99738638 196.20589707 74.24327642 191.4375 68.3125 C185.09547679 62.4809012 180.08188426 60.92925123 171.51171875 61.04296875 C166.04479565 61.52227967 162.3718017 63.20889399 158.65234375 67.25390625 Z M-93.34765625 159.25390625 C-98.64106581 166.04899228 -99.30987123 171.78813534 -98.5625 180.3125 C-96.81581073 187.02112184 -92.38518102 190.85715131 -86.5625 194.3125 C-80.48706434 196.33764522 -73.11014469 196.41296489 -67.1875 193.8125 C-62.04411663 190.8166671 -58.42711555 185.90634665 -56.5625 180.3125 C-55.90143047 172.99738638 -55.79410293 166.24327642 -60.5625 160.3125 C-66.90452321 154.4809012 -71.91811574 152.92925123 -80.48828125 153.04296875 C-85.95520435 153.52227967 -89.6281983 155.20889399 -93.34765625 159.25390625 Z M-223.5625 184.3125 C-227.14664372 193.87021659 -229.47294597 203.33954913 -231.5625 213.3125 C-231.73346191 214.1183252 -231.90442383 214.92415039 -232.08056641 215.75439453 C-239.25413631 251.50305699 -236.08019605 292.87641406 -224.5625 327.3125 C-223.53447301 328.56289386 -223.53447301 328.56289386 -221.33110714 328.43554783 C-220.33649251 328.43462604 -219.34187788 328.43370424 -218.31712341 328.43275452 C-216.61119522 328.43481651 -216.61119522 328.43481651 -214.87080383 328.43692017 C-213.61204941 328.43332489 -212.35329498 328.42972961 -211.05639648 328.42602539 C-209.73951843 328.42617142 -208.42264038 328.42631744 -207.06585693 328.4264679 C-203.44411732 328.42675587 -199.82241054 328.42085924 -196.20067859 328.41389394 C-192.41968116 328.4076603 -188.63868305 328.40705659 -184.85768127 328.40586853 C-177.6930571 328.40275524 -170.5284481 328.39454189 -163.36383063 328.38451904 C-155.20918838 328.37335782 -147.05454543 328.36784743 -138.89989746 328.36282361 C-122.12075607 328.35235928 -105.34162997 328.33475989 -88.5625 328.3125 C-88.66390584 326.56918267 -88.76542165 324.82587168 -88.8674078 323.0825882 C-88.95710419 321.54691171 -89.04619683 320.01119987 -89.13473606 318.47545624 C-89.35158241 314.74820711 -89.57737188 311.02270354 -89.84812927 307.2989502 C-90.58336894 296.86132301 -90.69277654 286.49027192 -90.66015625 276.03125 C-90.65828533 274.23807821 -90.65686463 272.44490589 -90.65586853 270.6517334 C-90.6520963 265.98958868 -90.64231293 261.32747637 -90.63116455 256.66534424 C-90.62083492 251.88497353 -90.61634646 247.10459746 -90.61132812 242.32421875 C-90.6006845 232.98696512 -90.58367385 223.64973528 -90.5625 214.3125 C-91.38379395 213.9112793 -92.20508789 213.51005859 -93.05126953 213.09667969 C-94.13005371 212.56461914 -95.20883789 212.03255859 -96.3203125 211.484375 C-97.38910645 210.9594043 -98.45790039 210.43443359 -99.55908203 209.89355469 C-110.2618657 204.2594117 -114.41904239 195.36172029 -118.5625 184.3125 C-153.2125 184.3125 -187.8625 184.3125 -223.5625 184.3125 Z M-36.5625 184.3125 C-38.2125 188.2725 -39.8625 192.2325 -41.5625 196.3125 C-48.31219814 206.43704721 -55.84717289 210.98148966 -67.15625 215.13671875 C-68.34734375 215.71873047 -68.34734375 215.71873047 -69.5625 216.3125 C-70.71498847 219.76996541 -70.69658712 222.46106459 -70.70776367 226.109375 C-70.71112228 226.79796097 -70.7144809 227.48654694 -70.71794128 228.19599915 C-70.72747161 230.48485103 -70.72939778 232.77362945 -70.73046875 235.0625 C-70.73368823 236.67504912 -70.73705281 238.28759795 -70.74055481 239.90014648 C-70.74655704 243.29981151 -70.74839442 246.69945114 -70.74780273 250.09912109 C-70.74772254 253.53179315 -70.75448493 256.96432872 -70.76831055 260.39697266 C-70.85859501 283.12959198 -70.78493801 305.7554339 -67.5625 328.3125 C-33.2425 328.3125 1.0775 328.3125 36.4375 328.3125 C37.7575 325.0125 39.0775 321.7125 40.4375 318.3125 C47.37549969 307.66347721 55.79717306 300.93545639 67.9375 297.25 C68.7625 296.940625 69.5875 296.63125 70.4375 296.3125 C71.58998847 292.85503459 71.57158712 290.16393541 71.58276367 286.515625 C71.58612228 285.82703903 71.5894809 285.13845306 71.59294128 284.42900085 C71.60247161 282.14014897 71.60439778 279.85137055 71.60546875 277.5625 C71.60868823 275.94995088 71.61205281 274.33740205 71.61555481 272.72485352 C71.62155704 269.32518849 71.62339442 265.92554886 71.62280273 262.52587891 C71.62272254 259.09320685 71.62948493 255.66067128 71.64331055 252.22802734 C71.73359501 229.49540802 71.65993801 206.8695661 68.4375 184.3125 C33.7875 184.3125 -0.8625 184.3125 -36.5625 184.3125 Z M89.4375 184.3125 C89.53890584 186.05581733 89.64042165 187.79912832 89.7424078 189.5424118 C89.83210419 191.07808829 89.92119683 192.61380013 90.00973606 194.14954376 C90.22658241 197.87679289 90.45237188 201.60229646 90.72312927 205.3260498 C91.45836894 215.76367699 91.56777654 226.13472808 91.53515625 236.59375 C91.53328533 238.38692179 91.53186463 240.18009411 91.53086853 241.9732666 C91.5270963 246.63541132 91.51731293 251.29752363 91.50616455 255.95965576 C91.49583492 260.74002647 91.49134646 265.52040254 91.48632812 270.30078125 C91.4756845 279.63803488 91.45867385 288.97526472 91.4375 298.3125 C92.12765198 298.65154861 92.81780396 298.99059723 93.52886963 299.33992004 C94.43232117 299.78695786 95.33577271 300.23399567 96.26660156 300.69458008 C97.61120453 301.3578405 97.61120453 301.3578405 98.98297119 302.03450012 C109.83889979 307.68685807 114.80190458 317.49611069 119.4375 328.3125 C154.0875 328.3125 188.7375 328.3125 224.4375 328.3125 C228.02164372 318.75478341 230.34794597 309.28545087 232.4375 299.3125 C232.60846191 298.5066748 232.77942383 297.70084961 232.95556641 296.87060547 C240.12913631 261.12194301 236.95519605 219.74858594 225.4375 185.3125 C224.40947301 184.06210614 224.40947301 184.06210614 222.20610714 184.18945217 C221.21149251 184.19037396 220.21687788 184.19129576 219.19212341 184.19224548 C217.48619522 184.19018349 217.48619522 184.19018349 215.74580383 184.18807983 C214.48704941 184.19167511 213.22829498 184.19527039 211.93139648 184.19897461 C210.61451843 184.19882858 209.29764038 184.19868256 207.94085693 184.1985321 C204.31911732 184.19824413 200.69741054 184.20414076 197.07567859 184.21110606 C193.29468116 184.2173397 189.51368305 184.21794341 185.73268127 184.21913147 C178.5680571 184.22224476 171.4034481 184.23045811 164.23883063 184.24048096 C156.08418838 184.25164218 147.92954543 184.25715257 139.77489746 184.26217639 C122.99575607 184.27264072 106.21662997 184.29024011 89.4375 184.3125 Z M63.4375 322.3125 C58.65554596 327.12094686 56.38247315 331.36427705 56.0625 338.125 C56.21595649 344.20007162 57.89892093 348.66201141 62.12109375 353.0703125 C68.08196191 358.37740802 72.37543943 359.7812795 80.39453125 359.625 C86.38967727 359.0093239 89.99935243 356.71868873 94.25 352.5625 C98.43673292 346.34221108 100.14522674 341.3127433 99.078125 333.7734375 C97.20603917 326.58188827 92.71476612 322.02143521 86.5625 318.125 C77.98046018 314.84363183 70.44433158 316.70703474 63.4375 322.3125 Z M-216.5625 348.3125 C-209.35806078 363.5218717 -202.49530892 377.8411279 -192.5625 391.3125 C-192.04945313 391.168125 -191.53640625 391.02375 -191.0078125 390.875 C-176.22669156 387.29169795 -161.94675766 388.10184506 -148.8125 396 C-140.32376919 402.04385485 -134.7837855 411.18320492 -132.5625 421.3125 C-132.44055307 424.19952269 -132.37262941 427.05070934 -132.375 429.9375 C-132.37435547 430.73913574 -132.37371094 431.54077148 -132.37304688 432.36669922 C-132.42489533 438.19375853 -132.97779522 443.68113836 -134.5625 449.3125 C-107.55202327 469.50542852 -74.63637314 482.55176448 -41.5625 488.3125 C-43.05264653 485.1995761 -44.75159628 482.22726081 -46.48022461 479.24169922 C-68.79597418 440.41638786 -78.84148565 396.82152761 -85.12402344 352.81323242 C-85.43762606 350.32389624 -85.43762606 350.32389624 -86.5625 348.3125 C-129.4625 348.3125 -172.3625 348.3125 -216.5625 348.3125 Z M-64.5625 348.3125 C-63.83039902 357.82981274 -62.8265882 366.48539691 -61 375.75 C-60.87067078 376.41047333 -60.74134155 377.07094666 -60.60809326 377.75143433 C-53.3703343 414.47175719 -43.38080938 463.87298135 -11.73828125 487.9375 C-6.14049782 491.47505793 -1.05742754 492.09825693 5.4375 491.3125 C20.1172998 486.84705999 29.0965681 471.11319906 36 458.4375 C49.17159632 433.24294249 55.82166119 404.98971823 61.4375 377.3125 C60.76565674 376.92288086 60.09381348 376.53326172 59.40161133 376.13183594 C58.5123999 375.60879883 57.62318848 375.08576172 56.70703125 374.546875 C55.82893799 374.03350586 54.95084473 373.52013672 54.04614258 372.99121094 C44.52118012 366.86171708 40.52189705 358.52349263 36.4375 348.3125 C3.1075 348.3125 -30.2225 348.3125 -64.5625 348.3125 Z M119.4375 348.3125 C115.9725 355.2425 115.9725 355.2425 112.4375 362.3125 C104.33538142 372.89752589 94.49976407 378.20407236 81.4375 380.3125 C81.2355603 381.34914795 81.2355603 381.34914795 81.02954102 382.40673828 C73.95832783 418.18842727 64.55345558 456.55007042 42.4375 486.3125 C42.7675 486.9725 43.0975 487.6325 43.4375 488.3125 C81.56178317 480.00839014 117.10981849 465.29101736 147.4375 440.3125 C147.98680176 439.86471191 148.53610352 439.41692383 149.10205078 438.95556641 C162.43818078 428.02761255 174.98157649 416.05835243 185.4375 402.3125 C185.84887207 401.78285645 186.26024414 401.25321289 186.68408203 400.70751953 C196.94015311 387.46910592 205.62995442 373.18732748 213.1875 358.25 C213.52289795 357.58943604 213.8582959 356.92887207 214.20385742 356.24829102 C215.60003693 353.40210248 216.4375 351.52639723 216.4375 348.3125 C184.4275 348.3125 152.4175 348.3125 119.4375 348.3125 Z M-189.34765625 415.25390625 C-194.64106581 422.04899228 -195.30987123 427.78813534 -194.5625 436.3125 C-192.81581073 443.02112184 -188.38518102 446.85715131 -182.5625 450.3125 C-176.48706434 452.33764522 -169.11014469 452.41296489 -163.1875 449.8125 C-158.04411663 446.8166671 -154.42711555 441.90634665 -152.5625 436.3125 C-151.90143047 428.99738638 -151.79410293 422.24327642 -156.5625 416.3125 C-162.90452321 410.4809012 -167.91811574 408.92925123 -176.48828125 409.04296875 C-181.95520435 409.52227967 -185.6281983 411.20889399 -189.34765625 415.25390625 Z " fill="#000000" transform="translate(255.5625,-0.31250000000000006)"/>
<path d="M0 0 C3.73885822 0.81653225 5.27191412 2.3930268 7.37890625 5.51953125 C8.71249716 9.35360512 8.44618898 11.27142617 7.37890625 15.20703125 C4.84082265 19.41073222 3.11278915 20.33606052 -1.62109375 21.51953125 C-5.39557368 20.94376313 -7.85856342 20.00833275 -11.05859375 17.95703125 C-13.46335955 14.20559661 -13.4493802 10.84005249 -12.62109375 6.51953125 C-10.22939134 0.61839615 -5.89007845 -0.37745659 0 0 Z " fill="#000000" transform="translate(82.62109375,73.48046875)"/>
</svg>
