<?xml version="1.0" encoding="UTF-8"?>
<svg version="1.1" xmlns="http://www.w3.org/2000/svg" width="512" height="512">
<path d="M0 0 C28.35154272 -0.11173995 56.66698688 -0.12506209 85 1 C81.45184883 49.8267967 61.89931126 93.84444291 29 130 C24.65455792 129.25396835 21.00175288 127.80917817 16.98828125 126.03515625 C-1.21239217 119.73034781 -21.84080593 121.70307772 -39.125 129.625 C-55.84425288 138.60344132 -69.70175955 152.82798064 -75.69970703 171.13574219 C-76.67048561 174.54999275 -77.46291932 177.97046206 -78.2109375 181.44140625 C-78.94010121 184.72986239 -79.87586751 187.82799136 -81 191 C-125.74553572 198.71642102 -173.60670434 195.22437633 -214 173 C-210.14593394 165.06531129 -206.00715557 157.39303881 -201.5 149.8125 C-195.82899105 140.188323 -190.30674962 130.49128198 -184.8828125 120.72583008 C-181.01098087 113.76384506 -177.03766115 106.8671316 -173 100 C-169.44332892 100.67300704 -166.07783023 101.57742872 -162.63818359 102.71411133 C-159.11105487 103.87199848 -155.55736909 104.93933967 -152 106 C-150.90171875 106.32871094 -149.8034375 106.65742188 -148.671875 106.99609375 C-118.55969065 114.45278395 -85.27016641 108.21189201 -58.875 92.5 C-52.87266852 88.78188911 -47.33562693 84.61702398 -42 80 C-41.19304687 79.33742188 -40.38609375 78.67484375 -39.5546875 77.9921875 C-16.25905078 58.20185035 -4.30157883 29.64729217 0 0 Z " fill="#000000" transform="translate(421,263)"/>
<path d="M0 0 C3.95704185 1.49580949 5.32994077 3.63943557 7.46875 7.21484375 C8.11610107 8.28387939 8.76345215 9.35291504 9.43041992 10.4543457 C10.12031708 11.61537507 10.81017624 12.77642702 11.5 13.9375 C12.21797285 15.12856286 12.93714093 16.318906 13.6574707 17.50854492 C14.74573758 19.30598752 15.83336288 21.10377386 16.91731262 22.90382385 C19.9380009 27.91855137 23.04276239 32.87496805 26.1875 37.8125 C30.53657257 44.67764534 34.87823069 51.54728428 39.1875 58.4375 C39.75299561 59.33251221 40.31849121 60.22752441 40.90112305 61.1496582 C41.42230713 61.98585693 41.94349121 62.82205566 42.48046875 63.68359375 C42.94348389 64.42150146 43.40649902 65.15940918 43.88354492 65.91967773 C44.97667704 67.95654167 45.55286088 69.74135782 46 72 C45.23816406 72.67804688 44.47632813 73.35609375 43.69140625 74.0546875 C19.3933535 95.86245666 1.81865504 124.78049661 -0.18457031 158.06689453 C-1.64390452 193.6735994 8.44509742 225.89971182 32.6875 252.5 C36.54650464 256.64919096 40.57449517 260.45959614 45 264 C43.60675183 267.69135499 41.9403689 271.07313667 40.015625 274.515625 C39.41709717 275.5895752 38.81856934 276.66352539 38.2019043 277.77001953 C37.55777588 278.91841309 36.91364746 280.06680664 36.25 281.25 C35.57634697 282.45543689 34.90292923 283.6610053 34.22973633 284.86669922 C32.8411641 287.35248733 31.4507794 289.83724934 30.05908203 292.32128906 C28.11542482 295.79159279 26.1800675 299.26647678 24.24609375 302.7421875 C17.64763427 314.58628798 10.94980332 326.35827877 4 338 C-0.50830261 336.5416766 -3.67981421 334.01438977 -7.1875 330.9375 C-7.75702393 330.44580322 -8.32654785 329.95410645 -8.91333008 329.44750977 C-10.61571313 327.97261984 -12.30891994 326.48782525 -14 325 C-14.8971875 324.21625 -15.794375 323.4325 -16.71875 322.625 C-25.97702027 314.42146938 -34.56197626 305.90319732 -42 296 C-42.76957031 294.98550781 -43.53914063 293.97101563 -44.33203125 292.92578125 C-57.05211786 275.83324394 -69.07878565 255.60089158 -75 235 C-73.7791807 231.33754211 -72.51349306 230.68696668 -69.4375 228.4375 C-55.27204257 217.29454415 -46.34013161 199.82318987 -44 182 C-42.13816411 162.47150262 -46.55392998 144.04035029 -58.375 128.1875 C-63.81811279 121.63130123 -69.61823821 115.3533467 -77 111 C-75.70993548 104.49103812 -73.88556321 98.57281753 -71.375 92.4375 C-71.02163574 91.56834961 -70.66827148 90.69919922 -70.30419922 89.80371094 C-62.94630589 71.98162076 -53.65728661 55.7731007 -41.875 40.5 C-41.31345215 39.77055176 -40.7519043 39.04110352 -40.17333984 38.28955078 C-36.12421248 33.15140455 -31.69880889 28.54509418 -27 24 C-26.195625 23.195625 -25.39125 22.39125 -24.5625 21.5625 C-23.2940625 20.2940625 -23.2940625 20.2940625 -22 19 C-21.39027344 18.35546875 -20.78054687 17.7109375 -20.15234375 17.046875 C-13.95399674 10.61229335 -7.15970147 5.30061361 0 0 Z " fill="#000000" transform="translate(177,82)"/>
<path d="M0 0 C1.07813965 0.00008057 2.1562793 0.00016113 3.26708984 0.00024414 C13.27963835 0.07029806 23.13909918 0.89674739 33.0625 2.1875 C33.74538086 2.2714502 34.42826172 2.35540039 35.13183594 2.44189453 C39.94092865 3.06592865 39.94092865 3.06592865 41.0625 4.1875 C41.15825883 5.84093581 41.24714751 7.49506077 41.30102539 9.15039062 C42.01015941 29.27762694 48.56098224 48.70839571 63.0625 63.1875 C80.44215661 78.87778919 100.21511316 84.53617473 123.46386719 83.39453125 C133.9254201 82.56106668 143.01490672 78.58914483 152.13671875 73.67578125 C154.52491288 72.46095887 156.45118428 71.66401747 159.0625 71.1875 C179.65010074 96.58931156 195.00146704 124.1657851 203.3125 155.9375 C203.54702881 156.81607666 203.78155762 157.69465332 204.02319336 158.59985352 C206.65663117 169.28773415 207.74337161 180.27628975 209.0625 191.1875 C148.94932466 193.60739451 148.94932466 193.60739451 124.0625 193.1875 C123.95292969 192.59026123 123.84335937 191.99302246 123.73046875 191.37768555 C118.77295233 165.03080331 109.22693787 143.01767235 91.0625 123.1875 C89.93521484 121.95386719 89.93521484 121.95386719 88.78515625 120.6953125 C67.32376956 98.26370037 36.141727 85.73362448 5.33081055 84.90185547 C-10.88275905 84.71992212 -25.99849257 87.33704618 -41.21484375 92.8828125 C-44.17643812 93.92076897 -46.87233011 94.62179512 -49.9375 95.1875 C-50.32905273 94.47956299 -50.72060547 93.77162598 -51.12402344 93.04223633 C-64.1057662 69.58529571 -77.39190088 46.32437414 -90.9375 23.1875 C-72.6106309 3.20094514 -25.30805815 -0.01796597 0 0 Z " fill="#000000" transform="translate(296.9375,42.8125)"/>
<path d="M0 0 C12.83441657 8.34237077 21.59128517 19.91920559 25.21044922 34.92358398 C27.96343344 49.54293542 25.31988104 64.37470777 17.25390625 76.84765625 C8.77918829 88.69600294 -2.13639001 96.58062498 -16.375 100.125 C-31.20780694 102.15285894 -45.35432634 100.77640368 -58.0703125 92.3359375 C-71.7033242 81.87145452 -79.79807687 69.24769582 -82.375 52.125 C-83.86842716 39.36633836 -80.15776716 25.3290725 -72.375 15.125 C-54.75558971 -7.14859413 -25.18113627 -14.32459848 0 0 Z " fill="#000000" transform="translate(88.375,207.875)"/>
<path d="M0 0 C13.72236504 9.40051712 21.58001457 22.14715375 24.9375 38.375 C25.02 39.48875 25.1025 40.6025 25.1875 41.75 C25.25066406 42.43707031 25.31382812 43.12414063 25.37890625 43.83203125 C26.14802277 58.7925881 20.43584077 71.76396685 10.9375 82.9375 C0.48414158 94.09125094 -11.62469257 99.60208432 -26.8125 100.75 C-41.89870965 100.9108719 -55.85632546 95.71500277 -67.08984375 85.5703125 C-77.43715581 74.63641812 -83.23850611 62.0013826 -83.125 46.9375 C-83.11936035 46.14778809 -83.1137207 45.35807617 -83.10791016 44.54443359 C-82.83497802 31.3491104 -78.02778476 18.30863918 -68.84375 8.62109375 C-49.81234967 -8.90975386 -22.72038838 -13.545443 0 0 Z " fill="#000000" transform="translate(440.8125,7.25)"/>
<path d="M0 0 C8.59967652 8.04442181 15.2651566 18.16353683 17 30 C17.13277344 30.89074219 17.26554687 31.78148437 17.40234375 32.69921875 C19.17071068 47.89922666 15.63731814 62.24952115 6.25390625 74.36328125 C-2.57444862 84.69107941 -14.40111976 92.90663801 -28.32836914 94.21948242 C-39.05648631 94.71386093 -49.13436122 94.70895122 -59 90 C-59.79277344 89.63777344 -60.58554687 89.27554688 -61.40234375 88.90234375 C-75.67954772 81.70272807 -83.97458192 69.54140847 -89.1171875 54.796875 C-91.88247181 42.90370532 -91.26413818 29.04776367 -86 18 C-85.649375 17.21882813 -85.29875 16.43765625 -84.9375 15.6328125 C-79.09096757 3.89914672 -68.84337963 -5.49601939 -56.6875 -10.3125 C-36.49160344 -16.84646653 -16.32302039 -13.9773419 0 0 Z " fill="#000000" transform="translate(451,418)"/>
</svg>
